<svg width="52" height="52" viewBox="0 0 52 52" fill="none" xmlns="http://www.w3.org/2000/svg">
<path d="M37.916 23.8334C37.916 23.5461 37.8018 23.2706 37.5986 23.0674C37.3955 22.8643 37.12 22.75 36.8327 22.75H19.4993C19.212 22.75 18.9366 22.8643 18.7334 23.0674C18.5302 23.2706 18.416 23.5461 18.416 23.8334V32.4916L18.4308 32.9867C18.4519 33.3781 18.4963 33.7678 18.5599 34.1547C18.8995 36.1263 19.8378 37.9611 21.2714 39.3947C23.0999 41.2231 25.5802 42.25 28.166 42.25C30.7519 42.25 33.2321 41.2231 35.0606 39.3947C36.8891 37.5662 37.916 35.0859 37.916 32.5V23.8334ZM18.416 7.58337H20.5827V14.0834H18.416V7.58337ZM27.0827 7.58337H29.2493V14.0834H27.0827V7.58337ZM35.7493 7.58337H37.916V14.0834H35.7493V7.58337ZM9.74935 30.3334C9.74935 31.1953 10.092 32.0217 10.7015 32.6312C11.311 33.2407 12.1374 33.5834 12.9993 33.5834H16.3001C16.2674 33.2246 16.2493 32.8632 16.2493 32.5V27.0834H12.9993C12.1374 27.0834 11.311 27.426 10.7015 28.0355C10.092 28.645 9.74935 29.4714 9.74935 30.3334ZM40.0827 32.5C40.0827 35.6605 38.8273 38.6917 36.5925 40.9266C36.1023 41.4168 35.5718 41.857 35.012 42.25H46.5827V44.4167H5.41602V42.25H21.3201C20.7603 41.857 20.2297 41.4168 19.7395 40.9266C18.289 39.476 17.2541 37.6891 16.7043 35.75H12.9993C11.5628 35.75 10.1854 35.1789 9.1696 34.1631C8.15377 33.1473 7.58268 31.77 7.58268 30.3334C7.58268 28.8968 8.15377 27.5194 9.1696 26.5036C10.1854 25.4878 11.5628 24.9167 12.9993 24.9167H16.2493V23.8334C16.2493 22.9714 16.592 22.145 17.2015 21.5355C17.811 20.926 18.6374 20.5834 19.4993 20.5834H36.8327C37.6946 20.5834 38.521 20.926 39.1305 21.5355C39.74 22.145 40.0827 22.9714 40.0827 23.8334V32.5Z" fill="#61ABC3"/>
</svg>
