<svg width="52" height="52" viewBox="0 0 52 52" fill="none" xmlns="http://www.w3.org/2000/svg">
<path d="M39.4541 5.41626V5.41838C40.1698 5.40071 40.8716 5.61791 41.4504 6.04045C42.0382 6.46957 42.4644 7.08355 42.6618 7.78394L46.5413 21.369C46.6346 21.6958 46.5682 22.0477 46.3635 22.319C46.1588 22.5903 45.839 22.7496 45.4992 22.7496H44.4159V45.4996C44.4159 46.0979 43.9308 46.5829 43.3325 46.5829H8.66586C8.06755 46.5829 7.58252 46.0979 7.58252 45.4996V22.7496H6.49919C6.16046 22.7496 5.84075 22.592 5.63591 22.3222C5.43107 22.0524 5.36498 21.7016 5.45606 21.3753L9.24772 7.79028L9.33236 7.53109C9.55391 6.9362 9.94528 6.4171 10.4612 6.04045C11.04 5.61792 11.7419 5.40072 12.4575 5.41838V5.41626H39.4541ZM20.2651 22.4322C20.062 22.6354 19.7865 22.7496 19.4992 22.7496H9.74919V44.4163H20.5825V32.4996C20.5827 31.9015 21.0677 31.4163 21.6659 31.4163H30.3325C30.9307 31.4163 31.4156 31.9015 31.4159 32.4996V44.4163H42.2492V22.7496H32.4992C32.2119 22.7496 31.9364 22.6354 31.7332 22.4322L25.9992 16.6982L20.2651 22.4322ZM22.7492 44.4163H29.2492V33.5829H22.7492V44.4163ZM12.4173 7.58293C12.1743 7.57398 11.9356 7.64698 11.7392 7.79028C11.5917 7.89793 11.4744 8.04048 11.3975 8.20394L11.334 8.37321L7.92635 20.5829H19.0506L25.2332 14.4003L25.3158 14.3263C25.7412 13.9794 26.3686 14.004 26.7651 14.4003L32.9478 20.5829H44.0625L40.5787 8.37956L40.5776 8.37321C40.5121 8.13911 40.3698 7.93369 40.1735 7.79028C39.977 7.64684 39.7374 7.57396 39.4943 7.58293H12.4173Z" fill="#61ABC3"/>
</svg>
