<svg width="49" height="48" viewBox="0 0 49 48" fill="none" xmlns="http://www.w3.org/2000/svg">
<g clip-path="url(#clip0_1096_833)">
<path fill-rule="evenodd" clip-rule="evenodd" d="M10.3202 34.8399C10.7597 35.5402 13.9684 38.3171 14.8192 38.5948C11.5363 39.2286 8.19912 39.7096 5.71884 41.259C4.4165 42.0719 3.5777 42.905 2.67469 44.1003C2.02853 44.9555 1.08338 46.7947 0.740234 48L3.63188 46.7182C11.765 43.6697 17.0747 44.5148 25.4567 45.698C32.7751 46.7303 37.7617 47.6479 43.3865 42.6112C44.7049 41.43 47.725 37.3935 48.0802 35.9306C47.735 35.999 44.9618 37.3633 44.3236 37.6611C41.2694 39.0858 34.7979 41.3656 31.5831 40.7036C31.85 40.5104 34.4366 39.7579 36.6059 38.297C37.547 37.6631 40.2621 35.7052 40.6193 34.8198C37.9584 34.8178 35.0407 34.7514 32.4279 34.8581C33.1965 35.021 34.2621 35.1398 35.0587 35.2444C36.2607 35.4034 37.5852 35.3651 37.6233 35.3712C37.6413 35.3732 37.6735 35.3853 37.6875 35.3873L37.8139 35.4336C35.7611 36.2546 34.0975 35.3289 31.9965 35.3269C31.0674 35.3269 30.3771 35.514 29.5142 35.5805C28.6594 35.6469 27.7945 35.5362 26.9537 35.4919C25.2018 35.4014 23.5403 35.6167 21.8206 35.6388C20.139 35.6589 18.4573 35.1277 16.8119 35.3651C15.2607 35.5905 13.6814 35.9266 12.2326 35.2484L12.8185 35.0412C13.0794 35.017 13.3623 35.013 13.6232 35.0271C14.7209 35.0854 16.6573 35.5805 17.8754 34.8178L10.3242 34.8399H10.3202ZM25.4988 36.1942C26.1791 35.7817 27.5738 36.0553 28.4306 36.0996C30.5096 36.2063 31.1356 35.5583 32.9156 35.9809C34.1196 36.2666 35.9417 35.3913 37.0413 36.4115C36.8908 36.5101 36.2868 36.4175 35.6387 36.5041C33.5798 36.7797 33.2688 35.9266 31.3504 36.2686C29.751 36.5544 27.034 36.8079 25.4968 36.1942H25.4988ZM23.8895 37.5625C19.9945 36.8723 20.3818 37.4699 16.6854 37.476C16.4527 37.476 13.3644 37.4981 13.2399 37.0937C13.2319 37.0655 13.2058 37.0635 13.1918 37.0474C14.3055 37.1399 14.7048 37.2486 15.8868 37.0957C18.341 36.7777 21.0801 37.5283 23.6025 36.7053C21.05 36.1821 19.9042 36.7516 18.1724 36.7294C17.2935 36.7194 16.4707 36.4518 15.5998 36.3391C14.5503 36.2042 13.862 36.3149 12.8747 36.3049C13.6714 35.7253 15.0761 35.8098 16.0975 36.0775C17.4259 36.4236 18.0741 36.4115 19.4667 36.1318C20.8333 35.8561 21.5196 35.8038 22.86 36.0956C24.0259 36.3491 24.8968 36.4538 26.1069 36.6208L25.264 36.7536C26.2734 37.6209 29.438 37.4478 30.7925 37.2104C32.0507 36.989 32.3778 36.9609 33.6902 37.1238C34.6915 37.2486 35.5263 37.3009 36.5838 37.3734C36.1403 37.5665 36.0219 37.7034 35.3497 37.7778C34.8179 37.8362 34.244 37.7959 33.7263 37.7356C33.2427 37.6792 31.254 37.5585 30.7463 37.641L30.4433 37.7436C30.4293 37.7235 30.3952 37.7678 30.3731 37.7839C31.8881 38.0998 33.028 38.4137 34.7678 38.4539C34.4547 38.6733 33.9009 38.629 33.4795 38.629C32.0166 38.629 31.1477 38.5344 29.6888 38.462C28.5811 38.4077 22.9182 38.3775 21.8567 38.6129C20.9958 38.8041 20.3597 38.7035 19.5189 38.5485C17.6125 38.1964 16.5269 38.295 14.6025 38.3292C14.6587 38.2748 14.6587 38.2708 14.751 38.2084C16.4386 37.0735 19.4988 38.2125 20.9697 38.1098C22.3684 38.0133 23.1008 38.0092 24.4533 38.2326C25.557 38.4157 26.739 38.2909 27.6079 37.8382C26.3376 37.6893 25.1838 37.7879 23.8895 37.5585V37.5625ZM16.0312 39.3494C16.7597 39.3031 17.8012 39.0657 18.4172 39.1582C19.4306 39.3091 19.3824 39.5285 20.6446 39.2991C22.84 38.9007 22.262 38.5888 25.0313 39.0697C27.2126 39.448 27.8607 39.3454 29.6567 38.8906C30.3992 38.7035 31.258 38.9047 31.9845 38.9852C32.8293 39.0797 33.5698 39.0999 34.4427 39.1099C33.7022 39.8887 30.7343 39.4178 29.9116 39.3413C29.4661 39.2991 25.6232 39.78 25.4607 39.8846C27.0661 40.1784 27.1945 40.0698 28.7677 39.8786C29.3196 39.8122 31.2219 39.786 31.7938 39.945L32.0306 40.0517C32.0407 40.0335 32.0688 40.0738 32.0868 40.0879C30.7002 40.1301 29.8092 40.1382 28.4687 40.3535C24.1784 41.0397 24.042 39.9269 21.5095 40.4118C19.4185 40.8123 19.1798 40.3153 18.2266 40.281C19.1376 40.1744 20.0487 40.4159 21.042 40.2086C21.4754 40.1181 21.7965 39.9792 22.2279 39.8907C22.5791 39.8182 23.2413 39.8021 23.5162 39.6251C20.8132 39.5908 18.652 39.9852 16.0333 39.3514L16.0312 39.3494ZM21.0079 41.102C21.8005 40.9853 22.5791 41.1684 23.5122 41.0135C26.0988 40.5829 26.5102 41.1523 28.258 40.9632C28.9885 40.8847 29.757 40.7117 30.4975 40.7459C29.6928 41.1725 26.9938 41.4139 25.8721 41.4401C24.044 41.4824 22.6854 41.3294 21.0079 41.1041V41.102Z" fill="white"/>
<path fill-rule="evenodd" clip-rule="evenodd" d="M24.5939 0.0241463C23.4501 -0.132808 22.4387 0.499035 21.7885 1.12082C19.9564 2.87147 20.7551 5.24189 21.1303 7.45535C21.321 8.58824 21.5257 9.70303 21.7163 10.7916L24.1364 24.2073L24.5899 24.159L24.5939 0.0221341V0.0241463Z" fill="white"/>
<path fill-rule="evenodd" clip-rule="evenodd" d="M26.4473 24.1831C26.8828 24.0946 26.7744 24.0483 26.8547 23.5472L27.8841 17.597C28.2172 15.3574 28.6085 13.0514 29.0821 10.8319C29.3089 9.76541 29.5115 8.5802 29.66 7.45133C29.8045 6.35466 30.2299 5.05274 30.246 4.05467C30.2821 1.79089 28.3717 -0.183115 26.2767 0.0503054C26.1985 1.15301 26.1824 23.4929 26.3369 23.9638L26.4072 24.1107C26.4132 24.0986 26.4313 24.163 26.4493 24.1851" fill="white"/>
<path fill-rule="evenodd" clip-rule="evenodd" d="M28.4238 24.5433C28.9436 24.5996 28.8673 24.5413 29.0379 24.0704C29.1402 23.7887 29.2225 23.5251 29.3168 23.2776C29.5115 22.7685 29.6921 22.2534 29.8707 21.7543L33.2258 12.5141C33.6834 11.2766 35.2004 7.26017 35.4312 6.24801C36.0874 3.35441 33.5349 1.18722 32.4633 1.20735C32.1121 2.61793 31.7369 5.34854 31.4038 7.03077C31.0265 8.93033 30.7937 10.9224 30.3984 12.822C30.1436 14.0454 28.4298 23.2997 28.4258 24.5453" fill="white"/>
<path fill-rule="evenodd" clip-rule="evenodd" d="M18.3695 1.28783C17.9762 1.23552 17.2477 1.7104 16.9768 1.94181C15.7066 3.0244 15.0042 4.60803 15.4477 6.45326C15.6524 7.30846 19.5313 17.8466 19.8645 18.7098L21.821 24.0402C21.9655 24.4709 21.8671 24.5836 22.3106 24.5453C22.5976 24.1268 21.5721 19.4946 21.4538 18.6696C21.3233 17.7439 21.1287 16.768 20.9521 15.786C20.4624 13.0776 19.9407 9.47363 19.429 7.02675C19.0317 5.13121 18.7307 3.19343 18.3675 1.28783" fill="white"/>
<path fill-rule="evenodd" clip-rule="evenodd" d="M12.7972 4.32632C12.1591 4.61608 11.3484 5.70672 11.0875 6.4774C10.7183 7.57005 10.7143 8.71703 11.0835 9.75535C11.3584 10.5301 13.2829 13.6088 13.8327 14.631C14.7297 16.2951 15.731 17.9271 16.6401 19.5348L19.4193 24.3823C19.5417 24.5856 19.9672 25.64 20.3103 25.2898C20.5912 25.0021 19.1324 21.5068 18.9819 21.0782C18.6307 20.0721 13.1123 4.64627 12.7972 4.32833" fill="white"/>
<path fill-rule="evenodd" clip-rule="evenodd" d="M35.9053 9.97468C34.1454 14.462 32.5059 19.6918 30.7742 24.0684C30.6819 24.3018 30.1421 25.32 30.6758 25.3482C31.013 25.3663 31.3079 24.5272 31.4605 24.2596C32.1106 23.1207 39.3046 10.9104 39.8163 9.49577C40.7755 6.84967 38.7628 4.26394 37.9481 4.31626L35.9053 9.97267V9.97468Z" fill="white"/>
<path fill-rule="evenodd" clip-rule="evenodd" d="M32.3262 26.3624C32.7837 26.465 32.8098 26.3322 33.0165 26.0706L34.2526 24.5735C34.8225 23.8954 35.4366 23.1367 35.9523 22.5451C37.6319 20.6194 39.3496 18.4261 41.0392 16.444C42.3035 14.961 43.6359 13.6772 43.4734 11.4356C43.4172 10.6649 42.9356 9.05508 42.4178 8.77337C42.0908 8.96453 41.9242 9.44345 41.7015 9.80766C41.4566 10.2041 41.278 10.524 41.0653 10.9043C40.674 11.6046 40.2025 12.4397 39.775 13.1017C39.3356 13.7818 38.9121 14.6109 38.5068 15.3172C37.5817 16.931 32.3503 25.6521 32.3282 26.3644" fill="white"/>
<path fill-rule="evenodd" clip-rule="evenodd" d="M8.49365 8.7935C7.9699 9.14363 7.46422 10.6206 7.4301 11.4376C7.32576 13.9126 8.53981 14.9208 9.796 16.5245C10.382 17.2731 10.9539 17.7882 11.5157 18.5287C12.3626 19.6455 13.9278 21.3257 14.9211 22.5834L17.4776 25.6581C18.1438 26.4388 18.0556 26.4932 18.5452 26.3282C18.5552 26.0666 17.5639 24.3843 17.3853 24.0946C16.0067 21.857 8.87492 9.18387 8.49566 8.7935" fill="white"/>
<path fill-rule="evenodd" clip-rule="evenodd" d="M34.1409 27.8414C34.5101 27.783 35.7162 26.6964 35.971 26.465C37.8252 24.7888 43.3195 20.4907 44.4894 19.1626C45.5389 17.9713 45.9985 15.4097 45.2279 14.2507C44.8847 14.301 44.8005 14.5062 44.3991 15.0053C44.1924 15.2608 43.9436 15.6009 43.6948 15.8746C42.2861 17.422 40.771 19.4765 39.4225 20.9655L34.4118 26.9761C34.163 27.2981 33.8178 27.4349 34.1409 27.8414Z" fill="white"/>
<path fill-rule="evenodd" clip-rule="evenodd" d="M5.68133 14.3392C4.81243 15.7357 5.61912 18.3094 6.43584 19.227C7.24454 20.1365 7.30073 20.054 8.07331 20.7402C9.22314 21.7624 16.383 27.7669 16.5496 27.787C17.4385 27.8957 16.1583 26.6562 15.7148 26.1048L12.8412 22.68C11.565 21.2473 9.88736 19.0237 8.62715 17.6152L6.47397 15.0435C6.0325 14.5545 6.11477 14.3996 5.68333 14.3392" fill="white"/>
<path fill-rule="evenodd" clip-rule="evenodd" d="M4.63266 20.1606C4.30557 24.2213 7.48217 24.9739 10.5083 26.8453C11.1825 27.2618 14.929 29.4713 15.2842 29.5095L15.4809 29.2761C15.4146 28.9018 14.5016 28.3102 14.1825 28.0486C13.1471 27.1954 5.11226 20.211 4.63066 20.1606" fill="white"/>
<path fill-rule="evenodd" clip-rule="evenodd" d="M46.2741 20.0138C45.9029 20.1244 39.1965 25.9619 37.9222 27.0063C37.4346 27.4047 37.0012 27.781 36.5256 28.1774C36.064 28.5618 35.1691 29.1493 35.4681 29.425C35.7089 29.6484 36.8908 28.8415 37.1236 28.6946L43.6172 24.9156C44.1972 24.6037 44.7671 24.2173 45.1283 23.8612C46.0975 22.9053 46.4788 21.3398 46.2741 20.0117" fill="white"/>
<path fill-rule="evenodd" clip-rule="evenodd" d="M36.5698 31.4051C37.5089 31.23 38.444 30.7752 39.3009 30.4734C40.9685 29.8858 43.2019 29.2479 44.4822 28.1955C44.9999 27.7689 45.7123 26.5073 45.7303 25.7144C45.3431 25.7788 43.842 26.7447 43.3725 27.0003L38.739 29.6564C38.2975 29.8999 36.7383 30.737 36.4434 31.0247L36.5698 31.4051Z" fill="white"/>
<path fill-rule="evenodd" clip-rule="evenodd" d="M13.9701 30.7571C13.7675 30.6404 13.637 30.5398 13.4042 30.403L7.62898 27.0667C7.11527 26.7749 5.73265 25.8895 5.27111 25.7949C5.21091 26.6904 5.93132 27.7931 6.51527 28.274C7.94203 29.4471 9.90457 29.759 11.5862 30.4895C12.0357 30.6847 12.4631 30.7953 12.9186 30.9764C13.2096 31.0911 14.0544 31.5278 14.2932 31.2743C14.542 31.0106 14.1287 30.8497 13.9701 30.7571Z" fill="white"/>
<path fill-rule="evenodd" clip-rule="evenodd" d="M43.8406 30.6585C43.2948 30.6686 40.9228 31.6304 40.2827 31.8679C39.763 32.061 39.1389 32.2421 38.579 32.4776C38.3081 32.5923 36.8533 32.9263 37.2727 33.3408C37.4553 33.5199 41.8479 32.9987 42.8693 32.053C43.2024 31.7451 43.7744 31.2079 43.8406 30.6585Z" fill="white"/>
<path fill-rule="evenodd" clip-rule="evenodd" d="M12.1908 32.4554C11.2115 32.1093 7.64765 30.6927 7.0918 30.6887C7.35267 33.1295 13.2845 33.4374 13.5955 33.3267C13.6236 32.8961 13.455 32.9565 13.0196 32.7834C12.7125 32.6627 12.5119 32.5701 12.1888 32.4554" fill="white"/>
<path fill-rule="evenodd" clip-rule="evenodd" d="M19.9883 34.844C21.1843 35.514 23.0926 35.51 24.6819 35.3752L29.1769 34.9184C29.203 34.9124 29.2271 34.9063 29.2512 34.9023L19.9883 34.844Z" fill="white"/>
</g>
<defs>
<clipPath id="clip0_1096_833">
<rect width="47.3379" height="48" fill="white" transform="translate(0.740234)"/>
</clipPath>
</defs>
</svg>
