<svg width="52" height="52" viewBox="0 0 52 52" fill="none" xmlns="http://www.w3.org/2000/svg">
<path d="M31.9248 5.41675L37.6663 12.3061L38.2143 12.9652L35.1717 17.0192C37.7854 18.8065 39.8297 21.3218 41.0369 24.2672C42.3909 27.5707 42.6191 31.2289 41.6865 34.6752C40.7539 38.1215 38.7114 41.1645 35.8763 43.3345C33.0411 45.5043 29.5706 46.6807 26.0004 46.6807C22.4302 46.6807 18.9596 45.5043 16.1245 43.3345C13.2893 41.1645 11.2469 38.1215 10.3143 34.6752C9.38165 31.2289 9.60981 27.5707 10.9638 24.2672C12.171 21.3221 14.2146 18.8065 16.828 17.0192L13.7864 12.9652L14.3344 12.3061L20.0759 5.41675H31.9248ZM29.2504 24.9167H22.7504L18.1293 18.7542C15.8268 20.3063 14.0268 22.5074 12.9686 25.0892C11.7952 27.9523 11.5976 31.1224 12.4058 34.1092C13.2141 37.096 14.9834 39.7337 17.4406 41.6143C19.8977 43.4949 22.9061 44.5141 26.0004 44.5141C29.0946 44.5141 32.103 43.4949 34.5602 41.6143C37.0173 39.7337 38.7867 37.096 39.5949 34.1092C40.4032 31.1224 40.2056 27.9523 39.0321 25.0892C37.9738 22.5071 36.1732 20.3063 33.8704 18.7542L29.2504 24.9167ZM16.5476 13.0361L18.6836 15.884L18.7408 15.8512L19.0275 16.3432L23.8326 22.7501H28.1681L32.9722 16.3432L33.26 15.8512L33.316 15.884L35.452 13.0361L30.9092 7.58341H21.0915L16.5476 13.0361Z" fill="#61ABC3"/>
</svg>
