<svg width="40" height="40" viewBox="0 0 40 40" fill="none" xmlns="http://www.w3.org/2000/svg">
<path d="M26.6667 20C26.6667 20.3315 26.535 20.6495 26.3006 20.8839C26.0661 21.1183 25.7482 21.25 25.4167 21.25H6.25C5.91848 21.25 5.60054 21.1183 5.36612 20.8839C5.1317 20.6495 5 20.3315 5 20C5 19.6685 5.1317 19.3505 5.36612 19.1161C5.60054 18.8817 5.91848 18.75 6.25 18.75H25.4167C25.7482 18.75 26.0661 18.8817 26.3006 19.1161C26.535 19.3505 26.6667 19.6685 26.6667 20ZM6.25 11.25H33.75C34.0815 11.25 34.3995 11.1183 34.6339 10.8839C34.8683 10.6495 35 10.3315 35 10C35 9.66848 34.8683 9.35054 34.6339 9.11612C34.3995 8.8817 34.0815 8.75 33.75 8.75H6.25C5.91848 8.75 5.60054 8.8817 5.36612 9.11612C5.1317 9.35054 5 9.66848 5 10C5 10.3315 5.1317 10.6495 5.36612 10.8839C5.60054 11.1183 5.91848 11.25 6.25 11.25ZM33.75 28.75H6.25C5.91848 28.75 5.60054 28.8817 5.36612 29.1161C5.1317 29.3505 5 29.6685 5 30C5 30.3315 5.1317 30.6495 5.36612 30.8839C5.60054 31.1183 5.91848 31.25 6.25 31.25H33.75C34.0815 31.25 34.3995 31.1183 34.6339 30.8839C34.8683 30.6495 35 30.3315 35 30C35 29.6685 34.8683 29.3505 34.6339 29.1161C34.3995 28.8817 34.0815 28.75 33.75 28.75Z" fill="white"/>
</svg>
