<svg width="100" height="11" viewBox="0 0 100 11" fill="none" xmlns="http://www.w3.org/2000/svg">
<path d="M4.96976 10.3976C4.28247 10.3976 3.6538 10.2639 3.08378 9.99986C2.51375 9.73579 2.02189 9.37716 1.60822 8.92074C1.19454 8.46757 0.875352 7.95572 0.657114 7.38518C0.435619 6.81464 0.328125 6.2278 0.328125 5.61815C0.328125 4.99219 0.445373 4.39231 0.679898 3.82503C0.914422 3.2545 1.24015 2.74917 1.65708 2.30904C2.07727 1.86891 2.5724 1.51681 3.14569 1.25599C3.71897 0.995176 4.34433 0.864769 5.02511 0.864769C5.72217 0.864769 6.3541 1.0017 6.92413 1.27555C7.4909 1.54941 7.98275 1.91455 8.39317 2.37424C8.80359 2.83393 9.11951 3.34905 9.33775 3.91632C9.55925 4.48686 9.66674 5.06717 9.66674 5.65727C9.66674 6.28323 9.55276 6.87985 9.32149 7.44386C9.09348 8.00788 8.76449 8.51321 8.3443 8.95986C7.92086 9.4065 7.42573 9.75535 6.8557 10.0129C6.28568 10.2705 5.65705 10.3976 4.96976 10.3976ZM5.00884 8.46757C5.41601 8.46757 5.77102 8.38606 6.08046 8.22305C6.38991 8.06004 6.64401 7.84161 6.84922 7.56775C7.05117 7.29389 7.20423 6.99069 7.30521 6.65489C7.40618 6.31909 7.45833 5.97677 7.45833 5.62141C7.45833 5.25952 7.40295 4.90742 7.29221 4.56836C7.18146 4.2293 7.02182 3.9261 6.81661 3.66202C6.60815 3.39795 6.35082 3.18929 6.04138 3.0328C5.73194 2.87957 5.38342 2.80133 4.9958 2.80133C4.58213 2.80133 4.22058 2.88283 3.91114 3.04584C3.6017 3.20885 3.34763 3.42729 3.14243 3.70115C2.94047 3.975 2.78411 4.2782 2.67988 4.60748C2.57239 4.93676 2.52027 5.28561 2.52027 5.64749C2.52027 6.00937 2.57565 6.35821 2.6864 6.69401C2.79715 7.02982 2.95674 7.33301 3.16195 7.60035C3.37041 7.87095 3.62448 8.08286 3.93066 8.23609C4.23685 8.38932 4.59517 8.46757 5.00884 8.46757ZM4.41274 6.62555H6.44854L9.81008 10.3324H7.75798L4.41274 6.62555Z" fill="white"/>
<path d="M14.9571 10.3976C14.2079 10.3976 13.5695 10.2705 13.0386 10.0194C12.5109 9.76838 12.0809 9.4228 11.7486 8.98268C11.4197 8.54255 11.1754 8.04048 11.0223 7.48298C10.8692 6.92223 10.791 6.33865 10.791 5.73225V0.933231H12.9603V5.73225C12.9603 6.09414 12.9962 6.43646 13.0646 6.76248C13.1363 7.0885 13.247 7.3754 13.4034 7.62643C13.5565 7.87747 13.7616 8.0796 14.019 8.23283C14.273 8.38606 14.589 8.4643 14.9571 8.4643C15.3251 8.4643 15.6411 8.38932 15.8952 8.23935C16.1492 8.08938 16.3544 7.88399 16.5108 7.61991C16.6639 7.35583 16.7779 7.05916 16.8561 6.73314C16.931 6.40712 16.9668 6.07131 16.9668 5.72899V0.933231H19.1231V5.73225C19.1231 6.38429 19.0417 6.99069 18.8788 7.55145C18.716 8.1122 18.4652 8.60775 18.1297 9.0381C17.7942 9.46845 17.3642 9.80425 16.8398 10.0422C16.3154 10.2802 15.6899 10.3976 14.9571 10.3976Z" fill="white"/>
<path d="M22.243 0.933231L24.2658 5.08999L26.3309 0.933231H28.699L25.3537 7.12762V10.3324H23.1974V7.10154L19.9043 0.933231H22.243Z" fill="white"/>
<path d="M34.3861 4.94328V10.3324H32.2168V0.933231H33.9366L38.2883 6.4658V0.933231H40.4447V10.3324H38.6858L34.3861 4.94328Z" fill="white"/>
<path d="M50.3274 0.933231V10.3324H48.1581V6.47884H44.4155V10.3324H42.2461V0.933231H44.4155V4.57488H48.1581V0.933231H50.3274Z" fill="white"/>
<path d="M56.2256 10.3976C55.5383 10.3976 54.9097 10.2639 54.3396 9.99334C53.7696 9.72274 53.2778 9.36086 52.8641 8.90769C52.4504 8.45452 52.1312 7.94267 51.913 7.37214C51.6915 6.8016 51.584 6.21476 51.584 5.6051C51.584 4.97914 51.7012 4.38253 51.9358 3.81851C52.1703 3.2545 52.496 2.74916 52.9129 2.30252C53.3331 1.85587 53.8283 1.50703 54.4015 1.24947C54.9748 0.995176 55.6002 0.864768 56.281 0.864768C56.978 0.864768 57.61 0.998435 58.18 1.26903C58.7468 1.53963 59.2386 1.90151 59.649 2.3612C60.0594 2.82089 60.3754 3.33274 60.5936 3.90328C60.8151 4.47381 60.9226 5.05413 60.9226 5.64423C60.9226 6.27019 60.8086 6.8668 60.5773 7.43082C60.3493 7.99484 60.0204 8.50016 59.6002 8.94681C59.1767 9.39346 58.6816 9.74556 58.1116 10.0064C57.5416 10.2672 56.9129 10.3976 56.2256 10.3976ZM53.7761 5.63445C53.7761 5.99633 53.8315 6.34843 53.9423 6.68749C54.053 7.02656 54.2126 7.32975 54.4178 7.59383C54.6263 7.85791 54.8803 8.06982 55.1865 8.22957C55.4895 8.38932 55.851 8.46757 56.2647 8.46757C56.6719 8.46757 57.0269 8.38606 57.3364 8.22305C57.6458 8.06004 57.8999 7.83834 58.1051 7.56123C58.307 7.28411 58.4601 6.97765 58.5611 6.64185C58.662 6.30605 58.7142 5.96373 58.7142 5.60836C58.7142 5.24648 58.6588 4.89764 58.5481 4.56184C58.4373 4.22604 58.2777 3.92284 58.0725 3.6555C57.864 3.38491 57.6067 3.17625 57.2973 3.02628C56.9878 2.87631 56.6393 2.80133 56.2517 2.80133C55.838 2.80133 55.4764 2.87957 55.167 3.03932C54.8576 3.19907 54.6035 3.41425 54.3983 3.6881C54.1963 3.96196 54.04 4.26516 53.9357 4.59444C53.8315 4.92372 53.7761 5.27256 53.7761 5.63445ZM57.0171 2.73286L57.0432 1.28859C57.3526 1.28859 57.6067 1.26577 57.8054 1.22339C58.0041 1.17775 58.1605 1.0995 58.2745 0.985394C58.3885 0.871287 58.4569 0.73436 58.4732 0.57461C58.4894 0.41486 58.5025 0.251849 58.5122 0.0855789H59.9813C59.9813 0.297492 59.9715 0.515924 59.9487 0.740878C59.9259 0.965832 59.8738 1.18753 59.7891 1.40922C59.7044 1.63092 59.5611 1.83631 59.3591 2.03192C59.2256 2.17211 59.0367 2.296 58.7891 2.40358C58.5415 2.50791 58.2647 2.59267 57.9552 2.6481C57.649 2.70352 57.3363 2.73286 57.0171 2.73286Z" fill="white"/>
<path d="M64.3471 4.94328V10.3324H62.1777V0.933231H63.8976L68.2493 6.4658V0.933231H70.4056V10.3324H68.6467L64.3471 4.94328Z" fill="white"/>
<path d="M80.9324 3.68811C80.9063 3.66202 80.8119 3.59682 80.649 3.49575C80.4861 3.39469 80.2874 3.29036 80.0529 3.18603C79.8184 3.07845 79.5611 2.99042 79.281 2.91544C78.9976 2.84045 78.7174 2.80133 78.434 2.80133C78.0627 2.80133 77.7761 2.86653 77.5741 2.99694C77.3722 3.12735 77.2712 3.3197 77.2712 3.574C77.2712 3.77613 77.3494 3.93914 77.5024 4.06629C77.6555 4.19344 77.8803 4.30102 78.1702 4.39557C78.4601 4.49012 78.8184 4.59118 79.2419 4.70529C79.8412 4.87156 80.3623 5.06717 80.8021 5.28887C81.2418 5.51056 81.5806 5.79746 81.8151 6.14956C82.0496 6.50166 82.1669 6.96461 82.1669 7.54167C82.1669 8.05678 82.0724 8.50343 81.8835 8.87509C81.6946 9.24676 81.4307 9.54343 81.0887 9.76839C80.75 9.99008 80.3689 10.1531 79.9519 10.2542C79.5317 10.3552 79.0985 10.4041 78.649 10.4041C78.1897 10.4041 77.7207 10.3552 77.2419 10.2574C76.7598 10.1596 76.3005 10.0227 75.8608 9.84663C75.4211 9.67058 75.0139 9.46845 74.6426 9.23698L75.5806 7.32975C75.6262 7.38192 75.7435 7.46668 75.939 7.58079C76.1312 7.6949 76.3722 7.81552 76.6588 7.94593C76.9455 8.07308 77.2647 8.18719 77.6164 8.29152C77.9682 8.39258 78.3233 8.44475 78.6751 8.44475C79.0724 8.44475 79.3656 8.3828 79.5546 8.25891C79.7435 8.13503 79.8379 7.96549 79.8379 7.75032C79.8379 7.52211 79.7369 7.33954 79.5415 7.20587C79.3428 7.06894 79.0725 6.94831 78.7337 6.83746C78.395 6.72662 78.0041 6.61251 77.5644 6.48862C76.9911 6.30605 76.5155 6.10392 76.1409 5.892C75.7663 5.67683 75.4894 5.41275 75.307 5.09651C75.1246 4.78027 75.0367 4.39231 75.0367 3.9261C75.0367 3.26102 75.193 2.70026 75.5057 2.25036C75.8184 1.80045 76.2386 1.45813 76.7696 1.22339C77.3005 0.988657 77.8771 0.87455 78.5025 0.87455C78.952 0.87455 79.3786 0.926712 79.7858 1.0343C80.193 1.14189 80.5741 1.27229 80.9356 1.43204C81.2972 1.59179 81.6099 1.7548 81.8737 1.92108L80.9324 3.68811Z" fill="white"/>
<path d="M90.0329 8.42518V10.3324H83.4336V0.933231H89.9156V2.84045H85.6029V4.66616H89.3065V6.42668H85.6029V8.42518H90.0329Z" fill="white"/>
<path d="M93.7241 0.933231H96.0531L99.3071 10.3324H97.0856L96.4504 8.22631H93.3495L92.7078 10.3324H90.4863L93.7241 0.933231ZM95.9977 6.74617L94.9 3.11757L93.7957 6.74617H95.9977Z" fill="white"/>
</svg>
