<svg width="51" height="10" viewBox="0 0 51 10" fill="none" xmlns="http://www.w3.org/2000/svg">
<path d="M0.328125 9.85575V0.456573H4.54629C4.9958 0.456573 5.4095 0.547859 5.7906 0.73369C6.16845 0.919522 6.49417 1.16078 6.76127 1.46072C7.03162 1.76066 7.24333 2.09972 7.39642 2.48116C7.54951 2.85934 7.62768 3.25057 7.62768 3.64505C7.62768 4.02324 7.56254 4.39164 7.43551 4.74374C7.30847 5.09585 7.12931 5.40883 6.89805 5.68268C6.67004 5.95654 6.39969 6.18149 6.09025 6.35754L8.15535 9.85249H5.76126L3.96323 6.82049H2.49423V9.85249H0.328125V9.85575ZM2.49745 4.91979H4.49417C4.66029 4.91979 4.81339 4.86763 4.9502 4.76005C5.087 4.65572 5.20102 4.50575 5.28897 4.31014C5.37691 4.11452 5.42253 3.89609 5.42253 3.64831C5.42253 3.38424 5.37038 3.15602 5.2694 2.96693C5.16843 2.77784 5.04142 2.62787 4.88507 2.52355C4.73197 2.41596 4.57235 2.36379 4.416 2.36379H2.49745V4.91979Z" fill="white"/>
<path d="M15.777 7.94851V9.85573H9.17773V0.456558H15.6597V2.36378H11.3471V4.18949H15.0506V5.95H11.3471V7.94851H15.777Z" fill="white"/>
<path d="M22.5359 3.21144C22.5098 3.18535 22.4154 3.12015 22.2525 3.01908C22.0896 2.91802 21.891 2.81369 21.6564 2.70936C21.4219 2.60178 21.1646 2.51375 20.8845 2.43877C20.6011 2.36378 20.321 2.32466 20.0376 2.32466C19.6662 2.32466 19.3796 2.38986 19.1777 2.52027C18.9757 2.65068 18.8747 2.84303 18.8747 3.09733C18.8747 3.29946 18.9529 3.46247 19.106 3.58962C19.2591 3.71677 19.4838 3.82435 19.7737 3.9189C20.0636 4.01019 20.4219 4.11451 20.8454 4.22862C21.4447 4.39489 21.9659 4.5905 22.4056 4.8122C22.8453 5.03389 23.1841 5.32079 23.4186 5.67289C23.6532 6.02173 23.7704 6.48794 23.7704 7.065C23.7704 7.58011 23.676 8.02676 23.487 8.39842C23.2981 8.77009 23.0343 9.06676 22.6922 9.29172C22.3535 9.51341 21.9724 9.67642 21.5554 9.77749C21.1353 9.87856 20.702 9.92746 20.2525 9.92746C19.7933 9.92746 19.3242 9.87855 18.8454 9.78075C18.3633 9.68294 17.904 9.54601 17.4643 9.36996C17.0246 9.19391 16.6174 8.99178 16.2461 8.76031L17.1842 6.85308C17.2298 6.90525 17.3471 6.99001 17.5425 7.10412C17.7347 7.21823 17.9757 7.33885 18.2623 7.46926C18.549 7.59641 18.8682 7.71052 19.22 7.81484C19.5718 7.91591 19.9268 7.96807 20.2786 7.96807C20.676 7.96807 20.9691 7.90613 21.1581 7.78225C21.347 7.65836 21.4414 7.48882 21.4414 7.27365C21.4414 7.04543 21.3405 6.86286 21.145 6.7292C20.9463 6.59227 20.676 6.47164 20.3372 6.3608C19.9985 6.24995 19.6076 6.13584 19.1679 6.01195C18.5946 5.82938 18.119 5.62725 17.7444 5.41533C17.3698 5.20016 17.093 4.93608 16.9106 4.61984C16.7281 4.3036 16.6402 3.91564 16.6402 3.44943C16.6402 2.78435 16.7966 2.22359 17.1093 1.77368C17.422 1.32378 17.8422 0.981453 18.3731 0.746719C18.9008 0.515244 19.4806 0.397877 20.106 0.397877C20.5555 0.397877 20.9822 0.450042 21.3893 0.557629C21.7965 0.665215 22.1776 0.795621 22.5392 0.955372C22.9007 1.11512 23.2134 1.27813 23.4773 1.4444L22.5359 3.21144Z" fill="white"/>
<path d="M29.1358 9.9242C28.4485 9.9242 27.8199 9.79053 27.2498 9.51993C26.6798 9.24933 26.1879 8.88745 25.7743 8.43429C25.3606 7.98112 25.0414 7.46926 24.8231 6.89873C24.6016 6.32819 24.4941 5.74136 24.4941 5.1317C24.4941 4.50574 24.6114 3.90912 24.846 3.3451C25.0805 2.78109 25.4062 2.27576 25.8231 1.82911C26.2433 1.38246 26.7384 1.03362 27.3117 0.776062C27.885 0.521766 28.5104 0.391357 29.1912 0.391357C29.8882 0.391357 30.5201 0.525025 31.0901 0.795622C31.6569 1.06622 32.1488 1.4281 32.5592 1.88779C32.9696 2.34748 33.2856 2.85933 33.5038 3.42987C33.7253 4.00041 33.8328 4.58072 33.8328 5.17082C33.8328 5.79678 33.7188 6.39339 33.4875 6.95741C33.2595 7.52142 32.9305 8.02676 32.5103 8.47341C32.0869 8.92006 31.5918 9.27216 31.0218 9.53297C30.4517 9.79379 29.8231 9.9242 29.1358 9.9242ZM26.6895 5.15778C26.6895 5.51966 26.7449 5.87176 26.8557 6.21082C26.9664 6.54989 27.1261 6.85308 27.3313 7.11716C27.5397 7.38124 27.7938 7.59315 28.1 7.7529C28.4029 7.91265 28.7644 7.9909 29.1781 7.9909C29.5853 7.9909 29.9403 7.90939 30.2498 7.74638C30.5592 7.58337 30.8133 7.36168 31.0185 7.08456C31.2204 6.80744 31.3735 6.50098 31.4745 6.16518C31.5755 5.82938 31.6276 5.48706 31.6276 5.1317C31.6276 4.76981 31.5722 4.42097 31.4615 4.08517C31.3507 3.74937 31.1911 3.44617 30.9859 3.17883C30.7775 2.90823 30.5201 2.69958 30.2107 2.54961C29.9013 2.39965 29.5527 2.32466 29.1651 2.32466C28.7514 2.32466 28.3899 2.4029 28.0804 2.56265C27.771 2.7224 27.5169 2.93758 27.3117 3.21144C27.1097 3.48529 26.9534 3.78849 26.8492 4.11777C26.7417 4.44705 26.6895 4.7959 26.6895 5.15778Z" fill="white"/>
<path d="M35.0859 9.85573V0.456558H39.3041C39.7536 0.456558 40.1673 0.547843 40.5484 0.733675C40.9263 0.919507 41.252 1.16076 41.5191 1.4607C41.7894 1.76064 42.0011 2.0997 42.1542 2.48115C42.3073 2.85933 42.3855 3.25055 42.3855 3.64504C42.3855 4.02322 42.3203 4.39163 42.1933 4.74373C42.0663 5.09583 41.8872 5.40881 41.6559 5.68267C41.4279 5.95653 41.1575 6.18148 40.8481 6.35753L42.9132 9.85247H40.5191L38.7211 6.82048H37.252V9.85247H35.0859V9.85573ZM37.2586 4.91978H39.2553C39.4214 4.91978 39.5745 4.86762 39.7113 4.76003C39.8481 4.6557 39.9621 4.50573 40.05 4.31012C40.138 4.11451 40.1836 3.89608 40.1836 3.6483C40.1836 3.38422 40.1315 3.15601 40.0305 2.96692C39.9295 2.77783 39.8025 2.62786 39.6461 2.52353C39.493 2.41594 39.3335 2.36378 39.1771 2.36378H37.2586V4.91978Z" fill="white"/>
<path d="M50.9503 2.36378H48.0937V9.85573H45.9244V2.36378H43.0547V0.456558H50.9503V2.36378Z" fill="white"/>
</svg>
