<svg width="52" height="52" viewBox="0 0 52 52" fill="none" xmlns="http://www.w3.org/2000/svg">
<path d="M16.8333 29.7621C16.8344 29.7637 16.8368 29.7671 16.8397 29.7716C16.8456 29.7809 16.8559 29.7964 16.8693 29.8171C16.8961 29.8584 16.9375 29.9216 16.9931 30.0033C17.1046 30.1673 17.2719 30.4062 17.4903 30.6941C17.9287 31.272 18.5648 32.0404 19.3555 32.8047C20.9723 34.3676 23.065 35.75 25.3276 35.75C27.6266 35.7498 30.0667 34.3334 32.0444 32.7402C33.009 31.9632 33.8155 31.183 34.3814 30.5968C34.6636 30.3046 34.8845 30.0619 35.0331 29.8943C35.1074 29.8106 35.1635 29.7447 35.2003 29.7018C35.2183 29.6807 35.232 29.6653 35.2405 29.6552C35.2446 29.6504 35.2483 29.6467 35.25 29.6447L35.2511 29.6425L36.0858 28.6343L36.9205 29.6425C36.9208 29.6429 36.9217 29.6436 36.9226 29.6447C36.9245 29.647 36.9277 29.651 36.9321 29.6563C36.941 29.6669 36.9548 29.6841 36.9734 29.706C37.0108 29.7501 37.0677 29.816 37.1416 29.9007C37.2898 30.0706 37.5072 30.3158 37.7817 30.6106C38.3323 31.202 39.105 31.9878 39.9949 32.7698C40.8884 33.5551 41.8776 34.3165 42.8619 34.8762C43.8622 35.445 44.7616 35.75 45.4993 35.75H46.5827V37.9167H45.4993C44.2199 37.9167 42.9342 37.4092 41.7913 36.7593C40.6324 36.1003 39.52 35.2366 38.5645 34.3969C37.6053 33.5539 36.7798 32.7147 36.1958 32.0874C36.1546 32.0432 36.1151 31.9995 36.0763 31.9573C36.0322 32.0036 35.988 32.0524 35.9408 32.1012C35.3301 32.7337 34.4553 33.5787 33.4028 34.4266C31.3464 36.0832 28.4073 37.9165 25.3276 37.9167C22.2107 37.9167 19.5953 36.0491 17.85 34.362C17.0454 33.5842 16.3907 32.8082 15.9129 32.1932C15.4352 32.8081 14.7812 33.5844 13.9769 34.362C12.2316 36.0491 9.61615 37.9167 6.49935 37.9167H5.41602V35.75H6.49935C8.76176 35.75 10.8536 34.3675 12.4704 32.8047C13.2611 32.0404 13.8971 31.272 14.3355 30.6941C14.554 30.4061 14.7223 30.1674 14.8338 30.0033C14.8894 29.9215 14.9308 29.8584 14.9576 29.8171C14.971 29.7964 14.9803 29.7809 14.9862 29.7716C14.9891 29.767 14.9915 29.7637 14.9925 29.7621L14.9936 29.761L15.9129 28.2789L16.8333 29.7621ZM16.8333 14.5954C16.8344 14.597 16.8368 14.6004 16.8397 14.6049C16.8456 14.6142 16.8559 14.6298 16.8693 14.6504C16.8961 14.6918 16.9375 14.7549 16.9931 14.8366C17.1046 15.0007 17.2719 15.2395 17.4903 15.5275C17.9287 16.1053 18.5648 16.8737 19.3555 17.6381C20.9723 19.2009 23.065 20.5834 25.3276 20.5834C27.6266 20.5832 30.0667 19.1667 32.0444 17.5735C33.009 16.7965 33.8155 16.0163 34.3814 15.4301C34.6636 15.1379 34.8845 14.8953 35.0331 14.7277C35.1074 14.6439 35.1635 14.5781 35.2003 14.5351C35.2183 14.5141 35.232 14.4986 35.2405 14.4886C35.2446 14.4837 35.2483 14.48 35.25 14.478L35.2511 14.4759L36.0858 13.4677L36.9205 14.4759C36.9208 14.4763 36.9217 14.4769 36.9226 14.478C36.9245 14.4803 36.9277 14.4844 36.9321 14.4896C36.941 14.5002 36.9548 14.5174 36.9734 14.5393C37.0108 14.5834 37.0677 14.6493 37.1416 14.734C37.2898 14.9039 37.5072 15.1491 37.7817 15.4439C38.3323 16.0353 39.105 16.8212 39.9949 17.6031C40.8884 18.3884 41.8776 19.1498 42.8619 19.7095C43.8622 20.2783 44.7616 20.5834 45.4993 20.5834H46.5827V22.75H45.4993C44.2199 22.75 42.9342 22.2425 41.7913 21.5927C40.6324 20.9337 39.52 20.0699 38.5645 19.2303C37.6053 18.3873 36.7798 17.5481 36.1958 16.9208C36.1546 16.8765 36.1151 16.8328 36.0763 16.7906C36.0322 16.8369 35.988 16.8857 35.9408 16.9345C35.3301 17.5671 34.4553 18.4121 33.4028 19.2599C31.3464 20.9165 28.4073 22.7498 25.3276 22.75C22.2107 22.75 19.5953 20.8825 17.85 19.1954C17.0454 18.4176 16.3907 17.6416 15.9129 17.0266C15.4352 17.6414 14.7812 18.4178 13.9769 19.1954C12.2316 20.8825 9.61615 22.75 6.49935 22.75H5.41602V20.5834H6.49935C8.76176 20.5834 10.8536 19.2009 12.4704 17.6381C13.2611 16.8737 13.8971 16.1053 14.3355 15.5275C14.554 15.2394 14.7223 15.0007 14.8338 14.8366C14.8894 14.7549 14.9308 14.6917 14.9576 14.6504C14.971 14.6298 14.9803 14.6142 14.9862 14.6049C14.9891 14.6003 14.9915 14.5971 14.9925 14.5954L14.9936 14.5944L15.9129 13.1122L16.8333 14.5954Z" fill="#61ABC3"/>
</svg>
