<svg width="16" height="16" viewBox="0 0 16 16" fill="none" xmlns="http://www.w3.org/2000/svg">
<path d="M1 6.98014C1.00001 6.07295 1.38152 5.42788 1.86165 5.00065C2.23828 4.66553 2.67282 4.46575 3.02897 4.36621C3.15722 3.65986 3.68411 3.07214 4.29655 2.76823C4.85999 2.48864 5.55681 2.42209 6.14746 2.76269C6.88478 1.30141 9.11481 1.3015 9.85221 2.76269C10.4429 2.42193 11.14 2.48869 11.7035 2.76823C12.3163 3.07226 12.8433 3.66041 12.971 4.36719C13.3272 4.46673 13.7617 4.6662 14.1383 5.0013C14.6185 5.42853 15 6.07361 15 6.98079C15 7.83262 14.4947 8.6567 13.8301 9.38965C13.3949 9.86951 12.8699 10.3325 12.3197 10.766L11.8206 13.2611C11.7828 13.4501 11.6569 13.6459 11.5771 13.7601C11.5318 13.8251 11.4883 13.8817 11.4564 13.9219C11.4403 13.9421 11.4266 13.9584 11.417 13.9701C11.4122 13.9759 11.4084 13.9807 11.4056 13.984C11.4042 13.9857 11.4029 13.987 11.402 13.988C11.4016 13.9884 11.4013 13.9889 11.401 13.9893L11.4007 13.9896L11.4004 13.9899L11.3623 14.0345L11.3112 14.0632L11.3109 14.0635L11.3089 14.0645C11.3078 14.0651 11.3062 14.066 11.3044 14.0671C11.3005 14.0692 11.295 14.0719 11.2884 14.0755C11.2751 14.0827 11.2564 14.0927 11.2334 14.1045C11.1877 14.128 11.1238 14.1596 11.0511 14.1914C10.9394 14.2403 10.7596 14.3119 10.5872 14.3291L10.514 14.333H8.03906L8 14.3343C7.98696 14.3343 7.97395 14.3333 7.96094 14.333H5.48665C5.17838 14.333 4.87967 14.226 4.64128 14.0306C4.40291 13.8352 4.23947 13.5633 4.17904 13.2611L3.68001 10.766C3.12985 10.3326 2.60504 9.86977 2.16992 9.38997C1.50517 8.65694 1 7.83262 1 6.98014ZM4.83268 13.1302C4.86289 13.2814 4.9446 13.4176 5.0638 13.5153C5.18299 13.613 5.33253 13.6664 5.48665 13.6663H6.71224C6.70368 13.6542 6.69476 13.6423 6.68652 13.6299L6.6862 13.6296L6.53158 13.3965L6.52897 13.3926C6.40678 13.2028 6.27955 13.0164 6.14714 12.8337C5.90344 12.5015 5.61509 12.2049 5.29004 11.9518L5.28776 11.9502L5.28548 11.9482C5.22866 11.9024 5.15459 11.8472 5.04557 11.7686L4.59603 11.4489C4.55709 11.4213 4.51849 11.3929 4.47949 11.3649L4.83268 13.1302ZM11.404 11.4489C11.0109 11.7272 10.8279 11.8569 10.7132 11.9489L10.7096 11.9518C10.385 12.205 10.0968 12.5019 9.85352 12.834L9.85189 12.8359L9.85026 12.8382C9.76211 12.9545 9.66949 13.0934 9.4681 13.3962L9.46842 13.3965L9.3138 13.6296L9.31348 13.6299C9.30524 13.6423 9.29633 13.6542 9.28776 13.6663H10.5137C10.5519 13.6663 10.6524 13.6383 10.7839 13.5807C10.8406 13.5559 10.8917 13.5307 10.9287 13.5117C10.9298 13.5112 10.9306 13.5103 10.9316 13.5098C10.9324 13.5088 10.9335 13.5081 10.9342 13.5072C10.9601 13.4746 10.9948 13.4291 11.0303 13.3783C11.1124 13.2606 11.1595 13.1677 11.167 13.1302L11.5202 11.3649L11.404 11.4489ZM1.66667 6.98014C1.66667 7.57764 2.03051 8.24344 2.66406 8.94206C3.28904 9.6312 4.12974 10.3014 4.98112 10.9046C5.35947 11.1725 5.56474 11.3178 5.69922 11.4258C6.02619 11.6803 6.32122 11.9734 6.57747 12.2985L6.6849 12.4398L6.68587 12.4411C6.82497 12.633 6.95884 12.8288 7.08724 13.028L7.24154 13.2611L7.27409 13.3066C7.35316 13.411 7.45385 13.4975 7.56966 13.5596C7.69096 13.6246 7.82538 13.6607 7.96257 13.6663H8.03744C8.17462 13.6607 8.30904 13.6246 8.43034 13.5596C8.56263 13.4886 8.67536 13.3861 8.75846 13.2611L8.91276 13.028L8.91309 13.0277C9.10881 12.7334 9.21522 12.5725 9.31901 12.4355C9.59715 12.0568 9.92592 11.718 10.2962 11.4287L10.4121 11.3395C10.5445 11.2405 10.7317 11.1079 11.0189 10.9046C11.8702 10.3015 12.711 9.63119 13.3359 8.94206C13.9695 8.24338 14.3333 7.57758 14.3333 6.98079C14.3333 6.28336 14.0482 5.81361 13.695 5.49935C13.4687 5.29798 13.2126 5.15969 12.9837 5.07259C12.9276 5.63645 12.741 6.23655 12.5016 6.80729C12.1952 7.53777 11.7897 8.25203 11.4115 8.83333L11.1322 8.65137L10.8525 8.46973C11.2156 7.91173 11.6001 7.23313 11.887 6.54915C12.1766 5.85882 12.3537 5.19352 12.3337 4.65169C12.3145 4.13229 11.9317 3.62544 11.4072 3.36523C10.9428 3.13483 10.4416 3.1313 10.0592 3.42708C10.0851 3.61241 10.0868 3.80442 10.0602 3.99935L9.51237 8.02832L8.85156 7.93848L9.39974 3.90918L9.40755 3.84082C9.4216 3.68235 9.4087 3.52831 9.37337 3.38216L9.35612 3.31738C8.96995 1.98413 6.96029 2.00579 6.62663 3.38216C6.58647 3.54829 6.57587 3.72569 6.60026 3.90918L7.14844 7.93848L6.48763 8.02832L5.93978 3.99902L5.93945 3.99837C5.91354 3.8043 5.9147 3.61259 5.94043 3.42708C5.55806 3.13146 5.05712 3.13514 4.59277 3.36556C4.06839 3.62583 3.68549 4.13259 3.66634 4.65234C3.64632 5.19423 3.82335 5.85988 4.11296 6.55046C4.39986 7.23458 4.78441 7.91307 5.14746 8.47103L4.58854 8.83463C4.21029 8.25331 3.80479 7.5389 3.49837 6.80827C3.25878 6.23695 3.07193 5.63623 3.01595 5.07194C2.78717 5.15905 2.53125 5.29741 2.30501 5.4987C1.95183 5.81296 1.66667 6.2827 1.66667 6.98014Z" fill="#35829B"/>
</svg>
