<svg width="52" height="52" viewBox="0 0 52 52" fill="none" xmlns="http://www.w3.org/2000/svg">
<path d="M26.826 45.5C24.3412 45.2103 21.8739 44.5764 19.4241 43.5982C16.9744 42.6186 14.7548 41.1918 12.7653 39.3181C10.7743 37.4428 9.12094 35.066 7.80526 32.1877C6.48958 29.3094 5.72343 25.8392 5.50681 21.7771L5.41602 19.8894L7.25334 19.9805C8.91626 20.0693 10.8914 20.4797 13.1787 21.2117C15.4676 21.9407 17.41 22.8713 19.006 24.0036C19.2083 21.0754 19.949 17.9915 21.228 14.7518C22.5071 11.5122 24.0975 8.76155 25.9993 6.5C27.9012 8.76155 29.4916 11.527 30.7707 14.7962C32.0497 18.0655 32.7904 21.165 32.9927 24.0947C34.4963 23.0512 36.3615 22.1276 38.5883 21.3239C40.815 20.5202 42.8371 20.0716 44.6546 19.9782L46.5827 19.8894L46.4919 21.8659C46.3692 25.09 45.8563 27.9839 44.9532 30.5476C44.0501 33.1113 42.7718 35.3604 41.1185 37.2949C39.4651 39.2293 37.4526 40.8725 35.0809 42.2245C32.7091 43.5764 29.9575 44.6683 26.826 45.5ZM26.7974 43.1357C26.3593 36.6719 24.3986 31.7851 20.915 28.4753C17.4315 25.1655 13.1006 23.1213 7.92233 22.3425C8.36036 29.001 10.3817 33.9656 13.9862 37.2365C17.5908 40.5073 21.8612 42.4737 26.7974 43.1357ZM25.9993 31.356C26.5361 30.3794 27.225 29.3584 28.066 28.2931C28.9055 27.2277 29.7696 26.3345 30.6584 25.6133C30.6409 23.2147 30.2235 20.711 29.4064 18.1021C28.5893 15.4932 27.4536 12.9949 25.9993 10.6072C24.5451 12.9949 23.4094 15.4932 22.5923 18.1021C21.7752 20.711 21.3578 23.2147 21.3403 25.6133C22.2291 26.336 23.0885 27.2293 23.9183 28.2931C24.7482 29.3584 25.4419 30.3786 25.9993 31.3536M29.189 42.3553C31.059 41.737 32.8517 40.9201 34.5672 39.9045C36.2842 38.8906 37.8213 37.5916 39.1784 36.0076C40.5371 34.4251 41.6513 32.5148 42.521 30.2766C43.3891 28.04 43.9067 25.3953 44.074 22.3425C40.2082 22.8876 36.7701 24.217 33.7596 26.3306C30.7492 28.4442 28.5789 31.0359 27.2489 34.1058C27.7268 35.3519 28.1194 36.6096 28.4268 37.879C28.7342 39.1484 28.9883 40.6405 29.189 42.3553Z" fill="#61ABC3"/>
</svg>
